# xmcd
#
# Track frame offsets: 
#        150
#        26042
#        45532
#        68295
#        80760
#        100782
#        113842
#        128005
#        145977
#        159597
#        176482
#        197190
#        213525
#        227617
#        253555
#        277047
#        294047
#        306967
#
# Disc length: 4348 seconds
#
# Revision: 0
# Processed by: cddbd v1.5.2PL0 Copyright (c) Steve Scherf et al.
# Submitted via: ExactAudioCopy v0.99pb4
#
DISCID=fb10fa12
DTITLE=Various Artist - Locked On, Volume 3 - Ramsey and Fen
DYEAR=1998
DGENRE=Other
TTITLE0=The Heartists/Belo Horizonti (Ramsey and Fen remix)
TTITLE1=Operator and Baffled/Things are Never (vocal mix)
TTITLE2=Fabulous Baker Boys/Oh Boy (Ramsey and Fen mix)
TTITLE3=Bizzi/Bizzi's Party (Booker T vocal lick)
TTITLE4=MJ Cole/Sincere (feat. Nova Casper and Jay Dee) (vocal mix)
TTITLE5=Crazy Bank/Your Love (vocal mix)
TTITLE6=Dreem Teem/Dreem Teem Theme (dub vocal mix)
TTITLE7=Aftershock/Slave to the Vibe (Dem 2 mix)
TTITLE8=Logic/Blues for You (hard dub mix)
TTITLE9=Amira/My Desire (Dreem Teem remix)
TTITLE10=Ramsey and Fen/Love Bug (feat. Lynsey Moore) (R.A.F. Bump mix)
TTITLE11=Dem 2/Destiny (Sleepless) (original mix)
TTITLE12=Soul II Soul/Pleasure Dome (Booker T dub)
TTITLE13=Kristine Blonde/Love Shy (Tuff Jam dub mix)
TTITLE14=Barbara Tucker/Beautiful People (Dem 2 mix)
TTITLE15=Groove Connektion 2/Club Lonely (Dem 2 Lonely vocal mix)
TTITLE16=Groove Control/Beautiful (Tuff Jam's Unda-Vybe mix)
TTITLE17=Sound of One/As I Am (Todd Edwards mix)
EXTD=
EXTT0=
EXTT1=
EXTT2=
EXTT3=
EXTT4=
EXTT5=
EXTT6=
EXTT7=
EXTT8=
EXTT9=
EXTT10=
EXTT11=
EXTT12=
EXTT13=
EXTT14=
EXTT15=
EXTT16=
EXTT17=
PLAYORDER=
